HIERARCHY
ROOT Hips
{
  OFFSET 179.979 97.3047 303.174
  CHANNELS 6 Xposition Yposition Zposition Zrotation Xrotation Yrotation
  JOINT Spine
  {
    OFFSET 0.000859786 9.92346 -1.22733
    CHANNELS 3 Zrotation Xrotation Yrotation
    JOINT Spine1
    {
      OFFSET 0 11.732 0
      CHANNELS 3 Zrotation Xrotation Yrotation
      JOINT Spine2
      {
        OFFSET 0 13.4588 0
        CHANNELS 3 Zrotation Xrotation Yrotation
        JOINT Neck
        {
          OFFSET 2.54812e-05 15.0278 0.877907
          CHANNELS 3 Zrotation Xrotation Yrotation
          JOINT Head
          {
            OFFSET 0 10.3218 3.14243
            CHANNELS 3 Zrotation Xrotation Yrotation
            End Site
            {
              OFFSET 0 0 0
            }
          }
        }
        JOINT LeftShoulder
        {
          OFFSET 6.10582 9.10629 0.757062
          CHANNELS 3 Zrotation Xrotation Yrotation
          JOINT LeftArm
          {
            OFFSET 0 12.9223 0
            CHANNELS 3 Zrotation Xrotation Yrotation
            JOINT LeftForeArm
            {
              OFFSET 0 27.4047 0
              CHANNELS 3 Zrotation Xrotation Yrotation
              JOINT LeftHand
              {
                OFFSET -1.28204e-05 27.6145 0
                CHANNELS 3 Zrotation Xrotation Yrotation
                End Site
                {
                  OFFSET 0 0 0
                }
              }
            }
          }
        }
        JOINT RightShoulder
        {
          OFFSET -6.1057 9.10638 0.757076
          CHANNELS 3 Zrotation Xrotation Yrotation
          JOINT RightArm
          {
            OFFSET 0 12.9223 0
            CHANNELS 3 Zrotation Xrotation Yrotation
            JOINT RightForeArm
            {
              OFFSET 0 27.4047 0
              CHANNELS 3 Zrotation Xrotation Yrotation
              JOINT RightHand
              {
                OFFSET 1.28428e-05 27.6145 1.44975e-05
                CHANNELS 3 Zrotation Xrotation Yrotation
                End Site
                {
                  OFFSET 0 0 0
                }
              }
            }
          }
        }
      }
    }
  }
  JOINT LeftUpLeg
  {
    OFFSET 9.12387 -6.65719 -0.0554031
    CHANNELS 3 Zrotation Xrotation Yrotation
    JOINT LeftLeg
    {
      OFFSET 0 40.5994 0
      CHANNELS 3 Zrotation Xrotation Yrotation
      JOINT LeftFoot
      {
        OFFSET 0 42.099 0
        CHANNELS 3 Zrotation Xrotation Yrotation
        JOINT LeftToeBase
        {
          OFFSET 0 15.7216 0
          CHANNELS 3 Zrotation Xrotation Yrotation
          End Site
          {
            OFFSET 0 0 0
          }
        }
      }
    }
  }
  JOINT RightUpLeg
  {
    OFFSET -9.12503 -6.6556 -0.0553527
    CHANNELS 3 Zrotation Xrotation Yrotation
    JOINT RightLeg
    {
      OFFSET 0 40.5994 0
      CHANNELS 3 Zrotation Xrotation Yrotation
      JOINT RightFoot
      {
        OFFSET 0 42.099 0
        CHANNELS 3 Zrotation Xrotation Yrotation
        JOINT RightToeBase
        {
          OFFSET 0 15.7216 0
          CHANNELS 3 Zrotation Xrotation Yrotation
          End Site
          {
            OFFSET 0 0 0
          }
        }
      }
    }
  }
}
MOTION
Frames:	18
Frame Time:	0.0333333
-172.826 96.6825 22.9763 -3.55226 0.938928 12.6158 0.65501 -6.19529 -1.01843 1.31529 1.54536 -2.20674 1.57423 8.13484 -2.23034 11.8863 9.68705 -3.10789 -8.4492 -22.2921 1.39281 -86.7213 -16.4174 90.0544 8.69342 14.4352 -1.88653 34.5311 -26.9239 -1.27782 -13.9749 -10.3154 -8.24793 91.1463 -17.6155 -90.0016 -3.59463 17.1831 21.5114 -38.2315 -16.1782 0.977824 4.4193 -10.2516 -8.18952 -165.57 24.0181 -30.019 1.41385 -26.6701 -11.7172 22.3837 63.9267 -19.8268 -0.965274 26.367 -3.60229 -170.993 12.1138 1.27745 -0.89032 -21.5395 12.3111 -51.4995 76.9652 48.4133 0.963539 26.3682 3.55537 
-172.822 96.6826 22.9785 -3.55202 0.937434 12.6217 0.65501 -6.19529 -1.01843 1.31529 1.54536 -2.20674 1.57423 8.13484 -2.23034 11.8814 9.6833 -3.11039 -8.45104 -22.2724 1.38947 -86.7213 -16.4173 90.0544 8.69164 14.4374 -1.88331 34.5321 -26.9239 -1.27782 -13.9747 -10.3155 -8.24683 91.1462 -17.6186 -90.0016 -3.59338 17.1879 21.5084 -38.2289 -16.1782 0.977824 4.42124 -10.2481 -8.18795 -165.572 24.0185 -30.0171 1.41384 -26.6771 -11.7147 22.3831 63.9306 -19.8268 -0.965274 26.367 -3.60229 -170.995 12.1128 1.28298 -0.891991 -21.5444 12.3114 -51.5101 76.9676 48.4276 0.963539 26.3682 3.55537 
-172.769 96.6842 23.0104 -3.54267 0.914561 12.7011 0.65501 -6.19529 -1.01843 1.31554 1.54536 -2.20674 1.57449 8.13484 -2.23037 11.8205 9.66003 -3.14319 -8.44628 -22.0511 1.34633 -86.7216 -16.4078 90.0536 8.66465 14.4635 -1.86028 34.5482 -26.9239 -1.27782 -13.9694 -10.3191 -8.21977 91.1498 -17.6471 -90.0005 -3.56514 17.2559 21.4938 -38.1973 -16.1848 0.977857 4.44255 -10.2101 -8.17512 -165.614 24.0253 -29.958 1.41745 -26.7655 -11.6976 22.3916 63.9764 -19.846 -0.965274 26.367 -3.60229 -171.035 12.0955 1.3485 -0.91205 -21.6114 12.3158 -51.6431 76.9996 48.6124 0.963539 26.3682 3.55537 
-172.717 96.6872 23.0465 -3.5226 0.895391 12.7781 0.649851 -6.1953 -1.01906 1.30531 1.54536 -2.20674 1.56393 8.13487 -2.22916 11.7939 9.67717 -3.17767 -8.41789 -21.8941 1.31274 -86.7221 -16.3915 90.0522 8.64001 14.474 -1.87267 34.5541 -26.9135 -1.2777 -13.9504 -10.3334 -8.17436 91.1655 -17.6551 -89.9958 -3.52867 17.3292 21.5445 -38.1701 -16.1658 0.977763 4.45743 -10.1777 -8.19231 -165.677 24.0233 -29.8544 1.40519 -26.8213 -11.7116 22.4044 63.9959 -19.8775 -0.965274 26.367 -3.60229 -171.088 12.0597 1.40897 -0.928137 -21.6459 12.3179 -51.7316 77.0228 48.7486 0.963539 26.3682 3.55537 
-172.665 96.6976 23.0868 -3.5035 0.890182 12.8585 0.643127 -6.19882 -1.01987 1.29194 1.53847 -2.20673 1.5501 8.128 -2.22755 11.7996 9.72506 -3.21194 -8.41673 -21.8045 1.29013 -86.7224 -16.3795 90.0513 8.63446 14.4753 -1.879 34.532 -26.8958 -1.2775 -13.9582 -10.3614 -8.15844 91.1903 -17.6585 -89.9883 -3.49796 17.3977 21.6075 -38.1351 -16.144 0.977655 4.4687 -10.1617 -8.19331 -165.758 24.0177 -29.7478 1.40432 -26.8369 -11.7205 22.4022 63.9965 -19.8965 -0.965274 26.367 -3.60229 -171.146 12.0075 1.49604 -0.946058 -21.6231 12.3101 -51.7188 77.0361 48.7741 0.963539 26.3682 3.55537 
-172.611 96.7114 23.1269 -3.49255 0.901282 12.9375 0.638568 -6.20576 -1.02042 1.2827 1.52467 -2.20423 1.54056 8.11422 -2.22502 11.8004 9.80174 -3.2421 -8.44962 -21.8309 1.26538 -86.7226 -16.3747 90.0509 8.64552 14.4803 -1.86173 34.5016 -26.8912 -1.27745 -13.9831 -10.3858 -8.18939 91.2105 -17.6636 -89.9821 -3.45169 17.4489 21.5998 -38.0999 -16.1452 0.977661 4.47094 -10.1619 -8.15902 -165.844 24.0207 -29.667 1.42606 -26.8277 -11.7085 22.3773 63.9975 -19.8923 -0.965274 26.367 -3.60229 -171.198 11.9564 1.59494 -0.971755 -21.5658 12.2905 -51.6256 77.0426 48.7163 0.963539 26.3682 3.55537 
-172.557 96.7245 23.1619 -3.48766 0.92378 13.0004 0.637708 -6.21177 -1.01622 1.28079 1.51276 -2.19548 1.53765 8.10234 -2.21616 11.7747 9.86078 -3.25244 -8.49885 -21.9474 1.24339 -86.7319 -16.3813 90.0487 8.65042 14.4943 -1.85078 34.5095 -26.8909 -1.27744 -13.9792 -10.3944 -8.21007 91.2122 -17.6764 -89.9816 -3.39351 17.483 21.5219 -38.0797 -16.169 0.977778 4.47306 -10.166 -8.11495 -165.926 24.037 -29.6229 1.46932 -26.8191 -11.6793 22.3384 64.0013 -19.8771 -0.965274 26.367 -3.60229 -171.24 11.9239 1.65647 -0.997571 -21.5138 12.2819 -51.5296 77.0405 48.6607 0.963539 26.3682 3.55537 
-172.503 96.7339 23.1897 -3.48354 0.94868 13.0427 0.636965 -6.21212 -1.01079 1.2795 1.51207 -2.18486 1.53586 8.10172 -2.20518 11.7416 9.83904 -3.23642 -8.56243 -22.0554 1.23946 -86.7463 -16.409 90.0467 8.62993 14.5142 -1.87392 34.573 -26.8926 -1.27746 -13.9511 -10.4024 -8.18006 91.2079 -17.6967 -89.9828 -3.3611 17.4985 21.4631 -38.0722 -16.1918 0.977891 4.48146 -10.1706 -8.08603 -165.997 24.064 -29.5888 1.51578 -26.8274 -11.6571 22.3116 64.0088 -19.8796 -0.965274 26.367 -3.60229 -171.276 11.9155 1.67309 -1.01774 -21.4951 12.2884 -51.4795 77.0362 48.6565 0.963539 26.3682 3.55537 
-172.453 96.7381 23.2111 -3.48135 0.966704 13.0752 0.636541 -6.20466 -1.00682 1.27914 1.52708 -2.17691 1.53513 8.11674 -2.19725 11.7275 9.72667 -3.20784 -8.6269 -22.0817 1.25318 -86.7536 -16.4548 90.048 8.59876 14.5413 -1.94171 34.6611 -26.8951 -1.27749 -13.9357 -10.4244 -8.12281 91.2012 -17.7155 -89.9848 -3.35841 17.51 21.471 -38.0658 -16.1983 0.977924 4.49507 -10.1696 -8.09501 -166.056 24.0969 -29.5308 1.5477 -26.8604 -11.6608 22.3246 64.0176 -19.9266 -0.965274 26.367 -3.60229 -171.311 11.9243 1.69815 -1.03882 -21.5162 12.2843 -51.4659 77.0469 48.689 0.963539 26.3682 3.55537 
-172.409 96.7342 23.2278 -3.48419 0.977988 13.118 0.63619 -6.19257 -1.00512 1.27904 1.55127 -2.17192 1.53468 8.14096 -2.19245 11.7434 9.6069 -3.20488 -8.66742 -22.0736 1.25252 -86.7474 -16.4823 90.0517 8.56957 14.5647 -2.03061 34.7285 -26.8987 -1.27753 -13.9385 -10.4567 -8.07111 91.1926 -17.7216 -89.9875 -3.33972 17.5261 21.5025 -38.0617 -16.2009 0.977936 4.49697 -10.1566 -8.12623 -166.095 24.1463 -29.4388 1.55934 -26.9285 -11.6875 22.3587 64.0339 -19.9976 -0.965274 26.367 -3.60229 -171.34 11.9498 1.7792 -1.07045 -21.5715 12.2511 -51.4672 77.0809 48.7329 0.963539 26.3682 3.55537 
-172.369 96.7303 23.242 -3.49689 0.983655 13.1799 0.635624 -6.17968 -1.0043 1.27852 1.57705 -2.17007 1.53376 8.16673 -2.19365 11.7849 9.56126 -3.24798 -8.66292 -22.0898 1.21703 -86.7321 -16.4634 90.0547 8.53195 14.5596 -2.07368 34.7532 -26.9045 -1.27877 -13.9433 -10.4854 -8.04855 91.1882 -17.713 -89.9888 -3.29176 17.5451 21.524 -38.0641 -16.2117 0.97799 4.49043 -10.1323 -8.14733 -166.114 24.208 -29.3405 1.55711 -27.0197 -11.7135 22.3896 64.0602 -20.0583 -0.965274 26.367 -3.60229 -171.359 11.9832 1.89686 -1.10797 -21.6418 12.2064 -51.4708 77.123 48.7776 0.963539 26.3682 3.55537 
-172.333 96.7294 23.2535 -3.51592 0.981822 13.262 0.63461 -6.16766 -1.00417 1.27699 1.60112 -2.16962 1.53129 8.1908 -2.19707 11.833 9.59798 -3.32002 -8.60279 -22.13 1.15828 -86.7162 -16.4139 90.0556 8.48741 14.5238 -2.03706 34.7486 -26.9177 -1.2801 -13.9545 -10.4964 -8.07813 91.195 -17.7023 -89.9868 -3.25445 17.5595 21.5574 -38.0709 -16.2124 0.977993 4.49526 -10.1368 -8.1595 -166.124 24.2674 -29.2899 1.56614 -27.1026 -11.6967 22.3922 64.0912 -20.0694 -0.965274 26.367 -3.60229 -171.372 12.0063 1.99586 -1.13399 -21.6935 12.1879 -51.4826 77.1469 48.8296 0.963539 26.3682 3.55537 
-172.297 96.729 23.2623 -3.53272 0.977307 13.3556 0.632983 -6.15441 -1.00454 1.27319 1.62758 -2.17013 1.52665 8.2173 -2.1989 11.8799 9.67069 -3.39698 -8.52023 -22.1757 1.09641 -86.7067 -16.3705 90.055 8.46757 14.4854 -1.9951 34.7482 -26.9338 -1.28173 -13.9651 -10.4875 -8.11865 91.2063 -17.708 -89.9833 -3.25671 17.5665 21.6074 -38.0816 -16.1904 0.977884 4.51137 -10.1364 -8.176 -166.145 24.3116 -29.3125 1.60959 -27.1535 -11.6168 22.3325 64.1216 -19.9974 -0.965274 26.367 -3.60229 -171.386 12.0073 2.05974 -1.1439 -21.7096 12.2018 -51.4994 77.1481 48.8814 0.963539 26.3682 3.55537 
-172.261 96.729 23.2669 -3.54 0.976623 13.4409 0.629695 -6.13848 -1.00533 1.26694 1.65947 -2.17115 1.51975 8.24922 -2.19734 11.9099 9.73948 -3.4537 -8.44916 -22.2444 1.04776 -86.7083 -16.3613 90.0539 8.50762 14.4574 -2.02347 34.7563 -26.9417 -1.28341 -13.9449 -10.4666 -8.1058 91.1962 -17.7293 -89.9813 -3.28333 17.584 21.6388 -38.0913 -16.1688 0.977777 4.52355 -10.0312 -8.16573 -166.187 24.3402 -29.3755 1.6812 -27.1707 -11.5056 22.2374 64.1432 -19.8828 -0.965274 26.367 -3.60229 -171.409 11.9992 2.1211 -1.15406 -21.708 12.2121 -51.5008 77.1455 48.9116 0.963539 26.3682 3.55537 
-172.226 96.7289 23.2635 -3.53716 0.985771 13.5011 0.628363 -6.12306 -1.00588 1.25918 1.69048 -2.17223 1.51214 8.28021 -2.19435 11.9068 9.80867 -3.47056 -8.40858 -22.3546 1.02635 -86.7225 -16.3934 90.0523 8.61303 14.4116 -2.07143 34.7297 -26.9422 -1.28506 -13.9064 -10.4345 -8.06768 91.1641 -17.7351 -89.981 -3.29272 17.5977 21.6266 -38.0877 -16.1666 0.977767 4.51362 -9.78979 -8.11187 -166.247 24.3758 -29.4251 1.75786 -27.1815 -11.4144 22.1567 64.15 -19.7904 -0.965274 26.367 -3.60229 -171.442 12.0168 2.20262 -1.18013 -21.7256 12.1902 -51.4687 77.1603 48.9065 0.963539 26.3682 3.55537 
-172.195 96.7283 23.2515 -3.53775 1.01576 13.5438 0.627661 -6.11242 -1.00614 1.25388 1.71187 -2.17292 1.50748 8.30158 -2.19201 11.8728 9.89922 -3.44064 -8.40273 -22.4899 1.04353 -86.7401 -16.4452 90.0511 8.74715 14.3283 -2.04987 34.648 -26.9463 -1.28668 -13.8947 -10.3847 -8.08176 91.1347 -17.7091 -89.9856 -3.26563 17.5658 21.5656 -38.0713 -16.1761 0.977813 4.47513 -9.49167 -8.05331 -166.307 24.4391 -29.4307 1.82177 -27.1867 -11.3659 22.1169 64.1429 -19.7478 -0.965274 26.367 -3.60229 -171.473 12.076 2.28368 -1.21347 -21.7691 12.154 -51.4372 77.1843 48.9002 0.963539 26.3682 3.55537 
-172.168 96.727 23.2342 -3.54992 1.05911 13.5937 0.627447 -6.10676 -1.00591 1.25226 1.7232 -2.17277 1.50574 8.3129 -2.1918 11.8422 10.0133 -3.38305 -8.44792 -22.6244 1.09463 -86.746 -16.4755 90.0517 8.84994 14.2365 -1.97788 34.56 -26.9562 -1.28819 -13.9169 -10.3384 -8.13731 91.122 -17.6746 -89.9864 -3.22525 17.4935 21.4917 -38.0722 -16.1884 0.977874 4.43885 -9.25006 -8.01791 -166.354 24.5265 -29.4073 1.87134 -27.1886 -11.3377 22.0961 64.1282 -19.7228 -0.965274 26.367 -3.60229 -171.492 12.1517 2.32846 -1.23308 -21.8043 12.1455 -51.4337 77.192 48.9182 0.963539 26.3682 3.55537 
-172.145 96.7276 23.2176 -3.57087 1.09774 13.6578 0.627659 -6.10175 -1.00499 1.25208 1.73323 -2.17134 1.50504 8.32289 -2.19203 11.8323 10.1342 -3.3211 -8.53418 -22.7367 1.1612 -86.7355 -16.471 90.0519 8.89757 14.1763 -1.94545 34.532 -26.9657 -1.28942 -13.9397 -10.3285 -8.1695 91.1251 -17.6501 -89.9836 -3.19952 17.4265 21.4769 -38.1134 -16.2003 0.977934 4.43621 -9.14932 -7.98911 -166.39 24.6067 -29.3807 1.90488 -27.1874 -11.3088 22.0702 64.1103 -19.682 -0.965274 26.367 -3.60229 -171.499 12.2023 2.32503 -1.23263 -21.7964 12.1797 -51.4427 77.1699 48.9445 0.963539 26.3682 3.55537 
